<svg xmlns="http://www.w3.org/2000/svg" width="167.57" viewBox="0 0 167.57 73.068">
  <path id="Tracé_34" data-name="Tracé 34" d="M42.073,53.421v-2.63a23.07,23.07,0,0,1-16.562,6.527A23.482,23.482,0,0,1,8.267,50.206,23.482,23.482,0,0,1,1.155,32.962,23.482,23.482,0,0,1,8.267,15.718,23.482,23.482,0,0,1,25.511,8.606a23.482,23.482,0,0,1,17.244,7.112,23.482,23.482,0,0,1,7.112,17.244V53.421a3.9,3.9,0,1,1-7.794,0ZM13.82,44.653a15.944,15.944,0,0,0,11.691,4.871A15.944,15.944,0,0,0,37.2,44.653a15.944,15.944,0,0,0,4.871-11.691A15.944,15.944,0,0,0,37.2,21.271,15.944,15.944,0,0,0,25.511,16.4,15.944,15.944,0,0,0,13.82,21.271,15.944,15.944,0,0,0,8.949,32.962,15.944,15.944,0,0,0,13.82,44.653Zm46.764,8.768V-11.853A3.771,3.771,0,0,1,61.7-14.63a3.771,3.771,0,0,1,2.777-1.12,3.771,3.771,0,0,1,2.777,1.12,3.771,3.771,0,0,1,1.12,2.777V15.134A23.07,23.07,0,0,1,84.94,8.606a23.482,23.482,0,0,1,17.244,7.112A23.482,23.482,0,0,1,109.3,32.962a23.482,23.482,0,0,1-7.112,17.244A23.482,23.482,0,0,1,84.94,57.318a23.07,23.07,0,0,1-16.562-6.527v2.63a3.9,3.9,0,1,1-7.794,0Zm12.665-8.768a16.465,16.465,0,0,0,23.382,0A15.944,15.944,0,0,0,101.5,32.962a15.944,15.944,0,0,0-4.871-11.691,16.465,16.465,0,0,0-23.382,0,15.944,15.944,0,0,0-4.871,11.691A15.944,15.944,0,0,0,73.249,44.653Zm88.851,11.5L144.369,38.515,126.638,56.149a3.355,3.355,0,0,1-2.728,1.169,3.827,3.827,0,0,1-3.9-3.9V-11.853a3.771,3.771,0,0,1,1.12-2.777,3.771,3.771,0,0,1,2.777-1.12,3.771,3.771,0,0,1,2.777,1.12,3.771,3.771,0,0,1,1.12,2.777V43.971L162.1,9.775a3.767,3.767,0,0,1,5.456,0,3.538,3.538,0,0,1,1.169,2.728,3.538,3.538,0,0,1-1.169,2.728L149.922,32.962l17.634,17.731a3.858,3.858,0,1,1-5.456,5.456Z" transform="translate(-1.155 15.75)" fill="#FFFFFF"/>
</svg>
