<?xml version="1.0" encoding="UTF-8"?>
<svg width="1475px" height="808px" viewBox="0 0 1475 808" version="1.1" xmlns="http://www.w3.org/2000/svg" xmlns:xlink="http://www.w3.org/1999/xlink">
    <!-- Generator: Sketch 53.2 (72643) - https://sketchapp.com -->
    <title>pattern</title>
    <desc>Created with Sketch.</desc>
    <g id="Page-1" stroke="none" stroke-width="1" fill="none" fill-rule="evenodd" opacity="0.128603981">
        <g id="adv-1-1-bg-explonation" transform="translate(-283.000000, 0.000000)" fill="#00202F">
            <path d="M1384,476 L1367.86922,515 L1268,515 L1284.13078,476 L1384,476 Z M440,761 L462.427652,707 L895,707 L872.568205,761 L440,761 Z M1443.10158,184 L1758,184 L1758,252 L1415,252 L1443.10158,184 Z M993,350 L979.491763,382 L719,382 L732.508237,350 L993,350 Z M378,622 L389.437291,595 L610,595 L598.562709,622 L378,622 Z M741,35 L752.437291,8 L973,8 L961.562709,35 L741,35 Z M902,522 L916.986266,486 L1206,486 L1191.00959,522 L902,522 Z M432,347 L424.653911,364 L283,364 L290.341957,347 L432,347 Z M649,51 L641.636458,68 L541,68 L548.367686,51 L649,51 Z M1464,411 L1456.64658,428 L1228,428 L1235.35342,411 L1464,411 Z M832,120 L824.653911,137 L683,137 L690.341957,120 L832,120 Z M1557.76316,553 L1758,553 L1758,593 L1541,593 L1557.76316,553 Z M1014,391 L1034.15639,342 L1398,342 L1377.84361,391 L1014,391 Z M1164,36 L1157.69189,51 L1036,51 L1042.31225,36 L1164,36 Z M611,167 L604.685414,182 L400,182 L406.31873,167 L611,167 Z M1679.90161,325 L1758,325 L1758,346 L1671,346 L1679.90161,325 Z M1660.48086,646 L1758,646 L1758,691 L1642,691 L1660.48086,646 Z M986.646639,671.835057 L891,671.835057 L906.30545,635 L1201.42401,635 L1195.32833,649.670113 L1351,649.670113 L1332.5846,694 L977.436866,694 L986.646639,671.835057 Z M1598.662,466 L1758,466 L1758,497 L1586,497 L1598.662,466 Z M1721,0 L1702.85802,44 L1353,44 L1371.14198,0 L1721,0 Z M1099.51984,192.234238 L1090.10067,215 L826,215 L839.692332,181.902437 L1070.47637,181.902437 L1076.64413,167 L1278,167 L1267.55908,192.234238 L1099.51984,192.234238 Z M1609,766 L1591.65019,808 L1257,808 L1274.35395,766 L1609,766 Z" id="pattern" transform="translate(1020.500000, 404.000000) rotate(-360.000000) translate(-1020.500000, -404.000000) "/>
        </g>
    </g>
</svg>