<svg xmlns="http://www.w3.org/2000/svg" version="1.1" xmlns:xlink="http://www.w3.org/1999/xlink" xmlns:svgjs="http://svgjs.com/svgjs" width="1440" height="560" preserveAspectRatio="none" viewBox="0 0 1440 560">
    <g mask="url(&quot;#SvgjsMask1002&quot;)" fill="none">
        <path d="M1136.51 505.87L1192.48 505.87L1192.48 561.84L1136.51 561.84z" stroke="rgba(231, 54, 53, 0.3)"></path>
        <path d="M1077.6 85.52 a26.68 26.68 0 1 0 53.36 0 a26.68 26.68 0 1 0 -53.36 0z" stroke="rgba(3, 123, 11, 0.3)"></path>
        <path d="M597.29 396.79a38.31 38.31 0 1 0-63.74-42.52z" stroke="rgba(211, 183, 20, 0.3)"></path>
        <path d="M744.74 527.79L792.55 527.79L792.55 575.6L744.74 575.6z" fill="rgba(3, 123, 11, 0.3)"></path>
        <path d="M1413.21 476.81L1439.35 476.81L1439.35 502.95L1413.21 502.95z" fill="rgba(211, 183, 20, 0.3)"></path>
        <path d="M32.59 139.8 a8.8 8.8 0 1 0 17.6 0 a8.8 8.8 0 1 0 -17.6 0z" fill="rgba(211, 183, 20, 0.3)"></path>
        <path d="M334.11 301.61L335.12 301.61L335.12 302.62L334.11 302.62z" stroke="rgba(231, 54, 53, 0.3)"></path>
        <path d="M844.63 515.8L850.39 515.8L850.39 532.25L844.63 532.25z" stroke="rgba(3, 123, 11, 0.3)"></path>
        <path d="M302.28 47.86L324.45 47.86L324.45 73.35L302.28 73.35z" stroke="rgba(3, 123, 11, 0.3)"></path>
        <path d="M470.61 476.84 a11.15 11.15 0 1 0 22.3 0 a11.15 11.15 0 1 0 -22.3 0z" stroke="rgba(231, 54, 53, 0.3)"></path>
        <path d="M1309.99 476.9L1326.17 476.9L1326.17 493.08L1309.99 493.08z" stroke="rgba(231, 54, 53, 0.3)"></path>
        <path d="M199.6 377.84L212.68 377.84L212.68 414.38L199.6 414.38z" fill="rgba(3, 123, 11, 0.3)"></path>
        <path d="M41.11 282.43a19.53 19.53 0 1 0-27.06 28.18z" fill="rgba(211, 183, 20, 0.3)"></path>
        <path d="M135.6 239.12 a9.92 9.92 0 1 0 19.84 0 a9.92 9.92 0 1 0 -19.84 0z" stroke="rgba(3, 123, 11, 0.3)"></path>
        <path d="M718.86 178.4L719.68 178.4L719.68 184.88L718.86 184.88z" fill="rgba(231, 54, 53, 0.3)"></path>
        <path d="M838.78 426.88L851.39 426.88L851.39 465.99L838.78 465.99z" fill="rgba(3, 123, 11, 0.3)"></path>
        <path d="M532.09 336.9a2.16 2.16 0 1 0 2.74-3.34z" stroke="rgba(211, 183, 20, 0.3)"></path>
        <path d="M1105.07 301.98L1131.96 301.98L1131.96 328.87L1105.07 328.87z" fill="rgba(211, 183, 20, 0.3)"></path>
        <path d="M519.24 39.27L530.25 39.27L530.25 50.28L519.24 50.28z" fill="rgba(3, 123, 11, 0.3)"></path>
        <path d="M1274.22 547.98L1327.5 547.98L1327.5 601.26L1274.22 601.26z" fill="rgba(3, 123, 11, 0.3)"></path>
        <path d="M948.34 186.66 a4.76 4.76 0 1 0 9.52 0 a4.76 4.76 0 1 0 -9.52 0z" fill="rgba(3, 123, 11, 0.3)"></path>
        <path d="M785.98 62.37 a22.47 22.47 0 1 0 44.94 0 a22.47 22.47 0 1 0 -44.94 0z" stroke="rgba(211, 183, 20, 0.3)"></path>
        <path d="M1021.01 3.24L1073.08 3.24L1073.08 17.77L1021.01 17.77z" stroke="rgba(3, 123, 11, 0.3)"></path>
        <path d="M1167.44 392.43L1198.53 392.43L1198.53 423.52L1167.44 423.52z" stroke="rgba(231, 54, 53, 0.3)"></path>
        <path d="M289.57 107.21 a48.93 48.93 0 1 0 97.86 0 a48.93 48.93 0 1 0 -97.86 0z" stroke="rgba(211, 183, 20, 0.3)"></path>
        <path d="M964.22 364.6a55.28 55.28 0 1 0 23.35 108.07z" fill="rgba(231, 54, 53, 0.3)"></path>
        <path d="M603.41 399.82L657.19 399.82L657.19 453.6L603.41 453.6z" fill="rgba(3, 123, 11, 0.3)"></path>
        <path d="M1169.3 343.24L1209.21 343.24L1209.21 383.15L1169.3 383.15z" fill="rgba(211, 183, 20, 0.3)"></path>
        <path d="M777.72 33.9L783.03 33.9L783.03 39.21L777.72 39.21z" fill="rgba(211, 183, 20, 0.3)"></path>
        <path d="M1236.99 207.12 a44.06 44.06 0 1 0 88.12 0 a44.06 44.06 0 1 0 -88.12 0z" stroke="rgba(231, 54, 53, 0.3)"></path>
        <path d="M624.23 584.33a54.8 54.8 0 1 0-62.37-90.12z" fill="rgba(231, 54, 53, 0.3)"></path>
        <path d="M212.22 218.32L233.59 218.32L233.59 220.51L212.22 220.51z" fill="rgba(211, 183, 20, 0.3)"></path>
        <path d="M742.43 492.43L771.72 492.43L771.72 512.77L742.43 512.77z" stroke="rgba(231, 54, 53, 0.3)"></path>
    </g>
    <defs>
        <mask id="SvgjsMask1002">
            <rect width="1440" height="560" fill="#ffffff"></rect>
        </mask>
    </defs>
</svg>